{"title":"Eminem ft Lil Wayne - No Love [KingPinVideos]","uid":5859466,"size":110331518,"categoryP":"video","categoryS":"music_videos","magnet":"?xt=urn:btih:c991a1f0e69c2adaa73524bf6a7f9961dd79220a&amp;dn=Eminem+ft+Lil+Wayne+-+No+Love+%5BKingPinVideos%5D&amp;tr=udp%3A%2F%2Ftracker.openbittorrent.com%3A80&amp;tr=udp%3A%2F%2Fopen.demonii.com%3A1337&amp;tr=udp%3A%2F%2Ftracker.coppersurfer.tk%3A6969&amp;tr=udp%3A%2F%2Fexodus.desync.com%3A6969","seeders":1,"leechers":0,"uploader":"KingPinMan","files":5,"time":1285909125,"description":"[img]http://img706.imageshack.us/img706/5417/eminemnolove4.png[/img]\n\n[img]http://img651.imageshack.us/img651/4936/eminemnolove3.png[/img]\n\n[code]General\nComplete name                    : Eminem ft Lil Wayne - No Love [KingPinVideos].mpg\nFormat                           : MPEG-PS\nFile size                        : 105 MiB\nDuration                         : 5mn 9s\nOverall bit rate                 : 2 856 Kbps\nWriting library                  : encoded by TMPGEnc 4.0 XPress Version. 4.7.4.299\n\nVideo\nID                               : 224 (0xE0)\nFormat                           : MPEG Video\nFormat version                   : Version 1\nFormat settings, BVOP            : Yes\nFormat settings, Matrix          : Default\nDuration                         : 5mn 9s\nBit rate mode                    : Constant\nBit rate                         : 2 615 Kbps\nNominal bit rate                 : 2 700 Kbps\nWidth                            : 384 pixels\nHeight                           : 208 pixels\nDisplay aspect ratio             : 16:9\nFrame rate                       : 29.970 fps\nResolution                       : 8 bits\nScan type                        : Progressive\nBits/(Pixel*Frame)               : 1.092\nStream size                      : 96.3 MiB (92%)\nWriting library                  : TMPGEnc XPress 4.7.4.299\n\nAudio\nID                               : 192 (0xC0)\nFormat                           : MPEG Audio\nFormat version                   : Version 1\nFormat profile                   : Layer 2\nDuration                         : 5mn 8s\nBit rate mode                    : Constant\nBit rate                         : 128 Kbps\nChannel(s)                       : 2 channels\nSampling rate                    : 48.0 KHz\nStream size                      : 4.71 MiB (4%)[/code]\n","torrent":{"xt":"urn:btih:c991a1f0e69c2adaa73524bf6a7f9961dd79220a","amp;dn":"Eminem+ft+Lil+Wayne+-+No+Love+%5BKingPinVideos%5D","amp;tr":["udp%3A%2F%2Ftracker.openbittorrent.com%3A80","udp%3A%2F%2Fopen.demonii.com%3A1337","udp%3A%2F%2Ftracker.coppersurfer.tk%3A6969","udp%3A%2F%2Fexodus.desync.com%3A6969"],"infoHash":"c991a1f0e69c2adaa73524bf6a7f9961dd79220a","infoHashBuffer":{"type":"Buffer","data":[201,145,161,240,230,156,42,218,167,53,36,191,106,127,153,97,221,121,34,10]},"announce":[],"urlList":[]}}